<svg width="354" height="80" xmlns="http://www.w3.org/2000/svg">

 <g>
  <title>Layer 1</title>
  <circle id="svg_1" fill="white" r="40" cy="40" cx="40"/>
  <circle id="svg_2" fill="black" r="13" cy="40" cx="40"/>
  <path id="svg_3" fill="black" d="m114.351,55.5455c9.307,0 14.825,-5.7571 14.825,-15.3026c0,-9.5156 -5.518,-15.2429 -14.616,-15.2429l-10.56,0l0,30.5455l10.351,0zm-4.818,-4.7876l0,-20.9702l4.71301,0c6.20499,0 9.442,3.4602 9.442,10.4552c0,7.0249 -3.23701,10.515 -9.606,10.515l-4.549,0zm34.65501,5.235c6.71199,0 10.97699,-4.7279 10.97699,-11.8125c0,-7.0994 -4.265,-11.8423 -10.97699,-11.8423c-6.71201,0 -10.97701,4.7429 -10.97701,11.8423c0,7.0846 4.265,11.8125 10.97701,11.8125zm0.03,-4.3252c-3.714,0 -5.534,-3.3111 -5.534,-7.5022c0,-4.191 1.81999,-7.5468 5.534,-7.5468c3.65399,0 5.47299,3.3558 5.47299,7.5468c0,4.1911 -1.819,7.5022 -5.47299,7.5022zm26.96899,-19.0313l-4.519,0l0,-5.4886l-5.399,0l0,5.4886l-3.25099,0l0,4.1761l3.25099,0l0,12.7373c-0.03,4.3103 3.10201,6.4282 7.159,6.3089c1.53601,-0.0447 2.595,-0.343 3.177,-0.5369l-0.90999,-4.2209c-0.298,0.0746 -0.91,0.2088 -1.58101,0.2088c-1.35699,0 -2.446,-0.4773 -2.446,-2.6548l0,-11.8424l4.519,0l0,-4.1761zm15.172,22.9091l12.36501,0c6.995,0 10.425,-3.5646 10.425,-8.3224c0,-4.6236 -3.28101,-7.3381 -6.532,-7.5022l0,-0.2983c2.983,-0.701 5.33899,-2.789 5.33899,-6.5028c0,-4.549 -3.28099,-7.9198 -9.903,-7.9198l-11.694,0l0,30.5455zm5.53401,-4.6236l0,-8.9488l6.09999,0c3.41501,0 5.533,2.088 5.533,4.8174c0,2.4311 -1.67,4.1314 -5.68201,4.1314l-5.95099,0zm0,-12.9311l0,-8.4268l5.59299,0c3.25101,0 4.93701,1.7152 4.93701,4.0717c0,2.6847 -2.17801,4.3551 -5.056,4.3551l-5.474,0zm21.83099,17.5547l5.399,0l0,-13.468c0,-2.9084 2.19299,-4.9667 5.161,-4.9667c0.91,0 2.043,0.1641 2.506,0.3133l0,-4.9667c-0.49199,-0.0895 -1.34299,-0.1491 -1.939,-0.1491c-2.625,0 -4.81799,1.4915 -5.653,4.1463l-0.239,0l0,-3.8182l-5.235,0l0,22.9091zm25.702,0.4474c6.71201,0 10.97801,-4.7279 10.97801,-11.8125c0,-7.0994 -4.26601,-11.8423 -10.97801,-11.8423c-6.711,0 -10.97699,4.7429 -10.97699,11.8423c0,7.0846 4.26599,11.8125 10.97699,11.8125zm0.03,-4.3252c-3.71399,0 -5.53299,-3.3111 -5.53299,-7.5022c0,-4.191 1.819,-7.5468 5.53299,-7.5468c3.65401,0 5.474,3.3558 5.474,7.5468c0,4.1911 -1.81999,7.5022 -5.474,7.5022zm19.64301,3.8778l5.638,0l4.29501,-15.4815l0.31299,0l4.29599,15.4815l5.62302,0l6.48801,-22.9091l-5.51901,0l-3.96701,16.0185l-0.224,0l-4.116,-16.0185l-5.444,0l-4.117,16.108l-0.20898,0l-4.02701,-16.108l-5.50299,0l6.47299,22.9091zm48.52899,-16.8537c-0.746,-3.8778 -3.84799,-6.3537 -9.21799,-6.3537c-5.51801,0 -9.27701,2.7145 -9.26199,6.9503c-0.01501,3.3409 2.04398,5.5483 6.444,6.4581l3.90698,0.8203c2.103,0.4624 3.08801,1.3125 3.08801,2.6101c0,1.566 -1.70102,2.7443 -4.26599,2.7443c-2.47601,0 -4.08701,-1.0739 -4.54901,-3.1321l-5.26501,0.5071c0.67102,4.206 4.20602,6.6967 9.82901,6.6967c5.72699,0 9.76901,-2.968 9.784,-7.3082c-0.01498,-3.2663 -2.11798,-5.2649 -6.44299,-6.2045l-3.90799,-0.8353c-2.32703,-0.522 -3.25101,-1.3274 -3.23602,-2.6548c-0.01498,-1.5511 1.70001,-2.625 3.952,-2.625c2.49103,0 3.80301,1.3572 4.22101,2.8636l4.922,-0.5369zm15.086,17.3011c5.34,0 9.009,-2.61 9.96301,-6.5923l-5.04102,-0.5667c-0.73099,1.9389 -2.521,2.9531 -4.84698,2.9531c-3.48999,0 -5.802,-2.2969 -5.84702,-6.2195l15.95901,0l0,-1.6555c0,-8.0391 -4.83301,-11.5739 -10.47,-11.5739c-6.56299,0 -10.84299,4.8175 -10.84299,11.8871c0,7.1889 4.22098,11.7677 11.12598,11.7677zm-5.75699,-14.0646c0.164,-2.9233 2.327,-5.3842 5.548,-5.3842c3.103,0 5.19101,2.267 5.22,5.3842l-10.76801,0zm20.51099,13.6172l5.40002,0l0,-13.468c0,-2.9084 2.19199,-4.9667 5.16,-4.9667c0.90997,0 2.043,0.1641 2.50598,0.3133l0,-4.9667c-0.492,-0.0895 -1.34201,-0.1491 -1.939,-0.1491c-2.625,0 -4.81799,1.4915 -5.65302,4.1463l-0.23798,0l0,-3.8182l-5.23602,0l0,22.9091z"/>
  <rect id="svg_5" height="110" width="290" y="2" x="92.5" stroke-width="0" stroke="#000" fill="#ffffff"/>
  <rect id="svg_6" height="1" width="1" y="-194" x="-104.5" stroke-width="0" stroke="#000" fill="#ffffff"/>
  <text font-weight="bold" transform="matrix(1.62901 0 0 2.6375 -113.305 4.9857)" stroke="#000" xml:space="preserve" text-anchor="start" font-family="sans-serif" font-size="24" id="svg_7" y="22" x="107.5" stroke-width="0" fill="#000000">Konke Browser</text>
 </g>
</svg>