<svg width="251" height="56" xmlns="http://www.w3.org/2000/svg">

 <g>
  <title>Layer 1</title>
  <path id="svg_1" fill="black" d="m13.6839,43.0001c9.3069,0 14.8253,-5.7571 14.8253,-15.3026c0,-9.5156 -5.5184,-15.2429 -14.6164,-15.2429l-10.5597,0l0,30.5455l10.3508,0zm-4.81742,-4.7876l0,-20.9702l4.71302,0c6.2046,0 9.4411,3.4602 9.4411,10.4552c0,7.0249 -3.2365,10.515 -9.6051,10.515l-4.54902,0zm34.65452,5.235c6.7116,0 10.9772,-4.7279 10.9772,-11.8125c0,-7.0994 -4.2656,-11.8423 -10.9772,-11.8423c-6.7117,0 -10.9773,4.7429 -10.9773,11.8423c0,7.0846 4.2656,11.8125 10.9773,11.8125zm0.0298,-4.3252c-3.7138,0 -5.5334,-3.3111 -5.5334,-7.5022c0,-4.191 1.8196,-7.5468 5.5334,-7.5468c3.6541,0 5.4737,3.3558 5.4737,7.5468c0,4.1911 -1.8196,7.5022 -5.4737,7.5022zm26.9696,-19.0313l-4.5192,0l0,-5.4886l-5.3991,0l0,5.4886l-3.2514,0l0,4.1761l3.2514,0l0,12.7373c-0.0298,4.3103 3.1023,6.4282 7.1591,6.3089c1.5362,-0.0447 2.5952,-0.343 3.1768,-0.5369l-0.90981,-4.2209c-0.2983,0.0746 -0.9098,0.2088 -1.58089,0.2088c-1.35731,0 -2.44611,-0.4773 -2.44611,-2.6548l0,-11.8424l4.5192,0l0,-4.1761zm15.1721,22.9091l12.3643,0c6.9952,0 10.4252,-3.5646 10.4252,-8.3224c0,-4.6236 -3.28101,-7.3381 -6.53201,-7.5022l0,-0.2983c2.983,-0.701 5.339,-2.789 5.339,-6.5028c0,-4.549 -3.281,-7.9198 -9.90331,-7.9198l-11.6932,0l0,30.5455zm5.5334,-4.6236l0,-8.9488l6.1001,0c3.415,0 5.533,2.088 5.533,4.8174c0,2.4311 -1.67,4.1314 -5.6822,4.1314l-5.9509,0zm0,-12.9311l0,-8.4268l5.593,0c3.2511,0 4.9371,1.7152 4.9371,4.0717c0,2.6847 -2.17789,4.3551 -5.0564,4.3551l-5.4737,0zm21.8311,17.5547l5.399,0l0,-13.468c0,-2.9084 2.193,-4.9667 5.161,-4.9667c0.91,0 2.04301,0.1641 2.506,0.3133l0,-4.9667c-0.492,-0.0895 -1.343,-0.1491 -1.939,-0.1491c-2.625,0 -4.818,1.4915 -5.653,4.1463l-0.239,0l0,-3.8182l-5.235,0l0,22.9091zm25.702,0.4474c6.71199,0 10.978,-4.7279 10.978,-11.8125c0,-7.0994 -4.26601,-11.8423 -10.978,-11.8423c-6.711,0 -10.97701,4.7429 -10.97701,11.8423c0,7.0846 4.26601,11.8125 10.97701,11.8125zm0.03,-4.3252c-3.714,0 -5.533,-3.3111 -5.533,-7.5022c0,-4.191 1.819,-7.5468 5.533,-7.5468c3.65399,0 5.474,3.3558 5.474,7.5468c0,4.1911 -1.82001,7.5022 -5.474,7.5022zm19.64301,3.8778l5.638,0l4.295,-15.4815l0.31299,0l4.29601,15.4815l5.623,0l6.48801,-22.9091l-5.51901,0l-3.967,16.0185l-0.224,0l-4.116,-16.0185l-5.444,0l-4.117,16.108l-0.209,0l-4.02699,-16.108l-5.50301,0l6.47301,22.9091zm48.52899,-16.8537c-0.746,-3.8778 -3.84799,-6.3537 -9.218,-6.3537c-5.51799,0 -9.27699,2.7145 -9.26199,6.9503c-0.015,3.3409 2.04399,5.5483 6.444,6.4581l3.907,0.8203c2.103,0.4624 3.088,1.3125 3.088,2.6101c0,1.566 -1.701,2.7443 -4.26599,2.7443c-2.47601,0 -4.08701,-1.0739 -4.54901,-3.1321l-5.265,0.5071c0.67101,4.206 4.20601,6.6967 9.82901,6.6967c5.72699,0 9.769,-2.968 9.784,-7.3082c-0.015,-3.2663 -2.118,-5.2649 -6.44301,-6.2045l-3.90799,-0.8353c-2.32701,-0.522 -3.25101,-1.3274 -3.23601,-2.6548c-0.015,-1.5511 1.7,-2.625 3.952,-2.625c2.49101,0 3.80301,1.3572 4.22101,2.8636l4.922,-0.5369zm15.086,17.3011c5.34,0 9.009,-2.61 9.963,-6.5923l-5.041,-0.5667c-0.73099,1.9389 -2.521,2.9531 -4.847,2.9531c-3.48999,0 -5.80199,-2.2969 -5.847,-6.2195l15.959,0l0,-1.6555c0,-8.0391 -4.83299,-11.5739 -10.46999,-11.5739c-6.563,0 -10.843,4.8175 -10.843,11.8871c0,7.1889 4.22099,11.7677 11.12599,11.7677zm-5.757,-14.0646c0.164,-2.9233 2.32701,-5.3842 5.548,-5.3842c3.103,0 5.19101,2.267 5.22,5.3842l-10.76801,0zm20.511,13.6172l5.40001,0l0,-13.468c0,-2.9084 2.192,-4.9667 5.15999,-4.9667c0.91,0 2.04301,0.1641 2.50601,0.3133l0,-4.9667c-0.492,-0.0895 -1.34201,-0.1491 -1.93901,-0.1491c-2.625,0 -4.81799,1.4915 -5.653,4.1463l-0.23799,0l0,-3.8182l-5.23601,0l0,22.9091z"/>
  <rect id="svg_3" height="59" width="258" y="-3" x="-5" stroke="#000" fill="#fff"/>
  <text transform="matrix(1.41949 0 0 1.83196 -5.02589 -1.61579)" stroke="#000" font-weight="bold" xml:space="preserve" text-anchor="start" font-family="sans-serif" font-size="24" id="svg_4" y="24" x="5" stroke-width="0" fill="#000000">Konke Browser</text>
 </g>
</svg>