<!-- This Source Code Form is subject to the terms of the Mozilla Public
   - License, v. 2.0. If a copy of the MPL was not distributed with this
   - file, You can obtain one at http://mozilla.org/MPL/2.0/. -->
<svg xmlns="http://www.w3.org/2000/svg" viewBox="0 0 12 12">
  <path
    d="M6.69449 0.371972C6.36411 -0.123991 5.63589 -0.123991 5.30551 0.371972L3.9532 2.40203C3.83802 2.57493 3.66259 2.69866 3.46115 2.74906L0.632822 3.4567C0.0308673 3.60731 -0.202274 4.33924 0.20153 4.81071L2.38971 7.36559C2.56068 7.56522 2.62777 7.83376 2.57078 8.09043L1.92883 10.9815C1.77636 11.6681 2.48828 12.2244 3.1169 11.9098L5.62672 10.6539C5.86171 10.5363 6.13829 10.5363 6.37328 10.6539L8.8831 11.9098C9.51172 12.2244 10.2236 11.6681 10.0712 10.9815L9.42922 8.09043C9.37223 7.83376 9.43932 7.56522 9.61029 7.36559L11.7985 4.81071C12.2023 4.33924 11.9691 3.6073 11.3672 3.4567L8.53885 2.74906C8.33741 2.69866 8.16197 2.57493 8.0468 2.40203L6.69449 0.371972Z"
    fill="context-fill" />
  <path fill-rule="evenodd" clip-rule="evenodd"
    d="M6.20806 3.24927C6.10912 3.10074 5.89088 3.10074 5.79194 3.24927L5.6177 3.51083C5.22678 4.09767 4.63106 4.518 3.94658 4.68926L3.3375 4.84165C3.15727 4.88674 3.08745 5.10569 3.2083 5.24679L3.90873 6.0646C4.48909 6.74222 4.71654 7.65335 4.52322 8.52396L4.48941 8.67624C4.45834 8.81617 4.60355 8.92949 4.73173 8.86535V8.86535C5.53008 8.46586 6.46993 8.46587 7.26827 8.86535V8.86535C7.39645 8.92949 7.54166 8.81617 7.51059 8.67624L7.47678 8.52396C7.28346 7.65335 7.51091 6.74222 8.09127 6.0646L8.7917 5.24679C8.91255 5.10569 8.84273 4.88674 8.6625 4.84165L8.05342 4.68926C7.36894 4.518 6.77322 4.09767 6.3823 3.51083L6.20806 3.24927ZM5.30551 0.371972C5.63589 -0.123991 6.36411 -0.123991 6.69449 0.371972L8.0468 2.40203C8.16197 2.57493 8.33741 2.69866 8.53885 2.74906L11.3672 3.4567C11.9691 3.60731 12.2023 4.33924 11.7985 4.81071L9.61029 7.36559C9.43931 7.56522 9.37223 7.83376 9.42922 8.09043L10.0712 10.9815C10.2236 11.6681 9.51173 12.2244 8.8831 11.9098L6.37328 10.6539C6.13829 10.5363 5.86171 10.5363 5.62672 10.6539L3.1169 11.9098C2.48828 12.2244 1.77636 11.6681 1.92883 10.9815L2.57078 8.09043C2.62777 7.83376 2.56068 7.56522 2.38971 7.36559L0.20153 4.81071C-0.202274 4.33924 0.0308673 3.60731 0.632822 3.4567L3.46115 2.74906C3.66259 2.69866 3.83802 2.57493 3.9532 2.40203L5.30551 0.371972Z"
    fill="context-stroke" />
</svg>