<!-- This Source Code Form is subject to the terms of the Mozilla Public
   - License, v. 2.0. If a copy of the MPL was not distributed with this
   - file, You can obtain one at http://mozilla.org/MPL/2.0/. -->
<svg xmlns="http://www.w3.org/2000/svg" width="16" height="16" viewBox="0 0 16 16">
    <path fill="context-fill" fill-opacity="context-fill-opacity"
        d="M9.2865 9.06518H6.7135C6.61155 9.06518 6.53955 8.97004 6.57179 8.87792L7.85829 5.20193C7.90369 5.07223 8.09631 5.07223 8.14171 5.20193L9.42821 8.87792C9.46045 8.97004 9.38846 9.06518 9.2865 9.06518Z" />
    <path fill="context-fill" fill-opacity="context-fill-opacity" fill-rule="evenodd" clip-rule="evenodd"
        d="M4 0C1.79086 0 0 1.79086 0 4V12C0 14.2091 1.79086 16 4 16H12C14.2091 16 16 14.2091 16 12V4C16 1.79086 14.2091 0 12 0H4ZM4.06017 13.3333C3.08096 13.3333 2.40774 12.396 2.76265 11.5268L5.79319 4.1045C5.93444 3.75855 6.16315 3.45116 6.45905 3.2096C7.34577 2.48569 8.65423 2.48569 9.54095 3.2096C9.83685 3.45116 10.0656 3.75855 10.2068 4.1045L13.2373 11.5268C13.5923 12.396 12.919 13.3333 11.9398 13.3333C11.3657 13.3333 10.8504 12.9976 10.6423 12.4879L10.0212 10.9668C10.0034 10.9231 9.95927 10.8944 9.91009 10.8944H6.08991C6.04073 10.8944 5.9966 10.9231 5.97878 10.9668L5.35768 12.488C5.14958 12.9976 4.63432 13.3333 4.06017 13.3333Z" />
</svg>