<!-- This Source Code Form is subject to the terms of the Mozilla Public
   - License, v. 2.0. If a copy of the MPL was not distributed with this
   - file, You can obtain one at http://mozilla.org/MPL/2.0/. -->
<svg width="16" height="16" viewBox="0 0 16 16" xmlns="http://www.w3.org/2000/svg">
    <path fill="context-fill" fill-opacity="context-fill-opacity" xmlns="http://www.w3.org/2000/svg" fill-rule="evenodd"
        clip-rule="evenodd"
        d="M3 0C1.34315 0 0 1.34315 0 3V13C0 14.6569 1.34315 16 3 16H13C14.6569 16 16 14.6569 16 13V6C16 4.34315 14.6569 3 13 3H10C9.44772 3 9.01632 2.54 8.83563 2.01811C8.42895 0.843466 7.31298 0 6 0H3ZM2 6C2 5.44772 2.44772 5 3 5H13C13.5523 5 14 5.44772 14 6V13C14 13.5523 13.5523 14 13 14H3C2.44772 14 2 13.5523 2 13V6Z" />
</svg>