<!-- This Source Code Form is subject to the terms of the Mozilla Public
   - License, v. 2.0. If a copy of the MPL was not distributed with this
   - file, You can obtain one at http://mozilla.org/MPL/2.0/. -->
<svg viewBox="0 0 24 24" fill="context-fill" fill-opacity="context-fill-opacity" width="32" height="32"
    xmlns="http://www.w3.org/2000/svg">
    <g clip-path="url(#clip0)">
        <path
            d="M5.91981 2.59266L5.2313 0.527085C4.99703 -0.175695 4.00297 -0.175695 3.7687 0.527085L3.08019 2.59266C3.00346 2.82283 2.82283 3.00346 2.59266 3.08019L0.527085 3.7687C-0.175695 4.00297 -0.175695 4.99703 0.527085 5.2313L2.59266 5.91981C2.82283 5.99654 3.00346 6.17717 3.08019 6.40734L3.7687 8.47292C4.00297 9.1757 4.99703 9.1757 5.2313 8.47292L5.91981 6.40734C5.99654 6.17717 6.17717 5.99654 6.40734 5.91981L8.47292 5.2313C9.1757 4.99703 9.1757 4.00297 8.47292 3.7687L6.40734 3.08019C6.17717 3.00346 5.99654 2.82283 5.91981 2.59266Z" />
        <path
            d="M5.91981 17.5926L5.2313 15.5271C4.99703 14.8243 4.00297 14.8243 3.7687 15.5271L3.08019 17.5926C3.00346 17.8228 2.82283 18.0035 2.59266 18.0802L0.527085 18.7687C-0.175695 19.0029 -0.175695 19.9971 0.527085 20.2312L2.59266 20.9197C2.82283 20.9965 3.00346 21.1771 3.08019 21.4074L3.7687 23.4729C4.00297 24.1756 4.99703 24.1756 5.2313 23.4729L5.91981 21.4074C5.99654 21.1771 6.17717 20.9965 6.40734 20.9197L8.47292 20.2312C9.1757 19.9971 9.1757 19.0029 8.47292 18.7687L6.40734 18.0802C6.17717 18.0035 5.99654 17.8228 5.91981 17.5926Z" />
        <path
            d="M17.8396 7.54953L16.4626 2.72987C15.994 1.09005 14.0059 1.09005 13.5374 2.72987L12.1604 7.54953C12.0069 8.08662 11.6457 8.50807 11.1853 8.6871L7.05417 10.2937C5.64861 10.8403 5.64861 13.1597 7.05417 13.7063L11.1853 15.3129C11.6457 15.492 12.0069 15.9134 12.1604 16.4505L13.5374 21.2702C14.0059 22.91 15.994 22.91 16.4626 21.2702L17.8396 16.4505C17.9931 15.9134 18.3543 15.492 18.8146 15.3129L22.9458 13.7063C24.3514 13.1597 24.3514 10.8403 22.9458 10.2937L18.8146 8.6871C18.3543 8.50807 17.9931 8.08662 17.8396 7.54953Z" />
    </g>
    <defs>
        <clipPath id="clip0">
            <rect width="24" height="24" fill="white" />
        </clipPath>
    </defs>
</svg>