<!-- This Source Code Form is subject to the terms of the Mozilla Public
   - License, v. 2.0. If a copy of the MPL was not distributed with this
   - file, You can obtain one at http://mozilla.org/MPL/2.0/. -->
<svg xmlns="http://www.w3.org/2000/svg" width="32" height="32" viewBox="0 0 64 64">
  <defs>
    <linearGradient id="gradient-linear-puzzle-piece" x1="0%" y1="0%" x2="0%" y2="100%">
      <stop offset="0%" stop-color="#66cc52" stop-opacity="1" />
      <stop offset="100%" stop-color="#60bf4c" stop-opacity="1" />
    </linearGradient>
  </defs>
  <path fill="url('#gradient-linear-puzzle-piece')"
    d="M10 0C12.2091 0 14 1.79086 14 4H17C18.6569 4 20 5.34315 20 7V10C22.2091 10 24 11.7909 24 14C24 16.2091 22.2091 18 20 18V21C20 22.6569 18.6569 24 17 24H3C1.34315 24 0 22.6569 0 21V19C0 18.4477 0.447715 18 1 18C3.20914 18 5 16.2091 5 14C5 11.7909 3.20914 10 1 10C0.447716 10 0 9.55228 0 9V7C0 5.34315 1.34315 4 3 4H6C6 1.79086 7.79086 0 10 0Z" />
</svg>