<!-- This Source Code Form is subject to the terms of the Mozilla Public
   - License, v. 2.0. If a copy of the MPL was not distributed with this
   - file, You can obtain one at http://mozilla.org/MPL/2.0/. -->
<svg xmlns="http://www.w3.org/2000/svg" width="16" height="16" viewBox="0 0 24 24" fill="context-fill"
  fill-opacity="context-fill-opacity">
  <path fill="context-fill" fill-opacity="context-fill-opacity"
    d="M9 9C9 8.44772 9.44772 8 10 8C10.5523 8 11 8.44772 11 9V17C11 17.5523 10.5523 18 10 18C9.44772 18 9 17.5523 9 17V9Z" />
  <path fill="context-fill" fill-opacity="context-fill-opacity"
    d="M14 8C13.4477 8 13 8.44772 13 9V17C13 17.5523 13.4477 18 14 18C14.5523 18 15 17.5523 15 17V9C15 8.44772 14.5523 8 14 8Z" />
  <path fill="context-fill" fill-opacity="context-fill-opacity" fill-rule="evenodd" clip-rule="evenodd"
    d="M9 2C9 0.895431 9.89543 0 11 0H13C14.1046 0 15 0.895431 15 2H21.5C22.3284 2 23 2.67157 23 3.5C23 4.32843 22.3284 5 21.5 5H21V21C21 22.6569 19.6569 24 18 24H6C4.34315 24 3 22.6569 3 21V5H2.5C1.67157 5 1 4.32843 1 3.5C1 2.67157 1.67157 2 2.5 2H9ZM7 5C6.44772 5 6 5.44772 6 6V20C6 20.5523 6.44771 21 7 21H17C17.5523 21 18 20.5523 18 20V6C18 5.44772 17.5523 5 17 5H7Z" />
</svg>