<!-- This Source Code Form is subject to the terms of the Mozilla Public
   - License, v. 2.0. If a copy of the MPL was not distributed with this
   - file, You can obtain one at http://mozilla.org/MPL/2.0/. -->
<svg width="16" height="16" viewBox="0 0 16 16" xmlns="http://www.w3.org/2000/svg">
    <path fill="context-fill" fill-opacity="context-fill-opacity" fill-rule="evenodd" clip-rule="evenodd"
        d="M4 3V4H3C1.34315 4 0 5.34315 0 7V9C0 10.6569 1.34315 12 3 12V13C3 14.6569 4.34315 16 6 16H10C11.6569 16 13 14.6569 13 13V12C14.6569 12 16 10.6569 16 9V7C16 5.34315 14.6569 4 13 4H12V3C12 1.34315 10.6569 0 9 0H7C5.34315 0 4 1.34315 4 3ZM9 2H7C6.44772 2 6 2.44772 6 3V4H10V3C10 2.44772 9.55228 2 9 2ZM12.8293 10C12.4175 8.83481 11.3062 8 10 8H6C4.69378 8 3.58254 8.83481 3.17071 10H3C2.44772 10 2 9.55228 2 9V7C2 6.44772 2.44772 6 3 6H13C13.5523 6 14 6.44772 14 7V9C14 9.55228 13.5523 10 13 10H12.8293ZM6 14H10C10.5523 14 11 13.5523 11 13V11C11 10.4477 10.5523 10 10 10H6C5.44772 10 5 10.4477 5 11V13C5 13.5523 5.44772 14 6 14Z" />
</svg>